<?xml version="1.0" encoding="UTF-8"?>
<svg xmlns="http://www.w3.org/2000/svg" width="200" height="440">
<path fill="#039" d="M0,0h200v440H0"/>
<path fill="#FC0" transform="scale(.32)" d="m64,452
22-67 22,67-57-41h70m-27-67 22-67 22,67-57-41h70m-57,257
22-67 22,67-57-41h70m22-255 22-67 22,67-57-41h70m-57,417
22-67 22,67-57-41h70m52-364 22-67 22,67-57-41h70m-57,475
22-67 22,67-57-41h70m52-364 22-67 22,67-57-41h70m-57,417
22-67 22,67-57-41h70m22-255 22-67 22,67-57-41h70m-57,257
22-67 22,67-57-41h70m-27-67 22-67 22,67-57-41h70"/>
<text fill="#FFF" font-family="Arial" transform="scale(.75 1)"
font-size="161" font-weight="bold" x="13" y="376">DK</text>
</svg>